<?xml version="1.0" standalone="no"?>
<!DOCTYPE svg PUBLIC "-//W3C//DTD SVG 20010904//EN"
 "http://www.w3.org/TR/2001/REC-SVG-20010904/DTD/svg10.dtd">
<svg version="1.0" xmlns="http://www.w3.org/2000/svg"
 width="1280.000000pt" height="640.000000pt" viewBox="0 0 1280.000000 640.000000"
 preserveAspectRatio="xMidYMid meet">
<g transform="translate(0.000000,640.000000) scale(0.100000,-0.100000)"
fill="#000000" stroke="none">
<path d="M1893 5459 c-538 -48 -1038 -280 -1425 -662 -123 -121 -200 -215
-296 -357 -75 -112 -99 -156 -89 -166 3 -3 286 -10 629 -15 343 -5 632 -11
643 -14 14 -3 108 -164 328 -560 l308 -556 -325 -543 c-179 -299 -331 -546
-338 -548 -7 -3 -164 -1 -348 3 -184 4 -464 8 -622 8 -258 1 -288 -1 -288 -15
0 -23 97 -185 171 -284 151 -205 300 -355 503 -507 739 -553 1771 -603 2566
-123 378 228 678 549 877 941 l59 114 39 -4 c22 -2 1667 -5 3655 -7 3259 -4
3626 -3 3725 11 269 39 489 125 672 262 133 100 220 214 271 355 25 69 26 84
30 306 3 189 1 246 -12 306 -91 406 -527 693 -1121 736 -186 13 -6872 13
-7079 0 -82 -5 -163 -12 -180 -15 -31 -5 -32 -4 -91 107 -141 263 -320 488
-539 675 -479 410 -1098 608 -1723 552z"/>
</g>
</svg>
