<?xml version="1.0" standalone="no"?>
<!DOCTYPE svg PUBLIC "-//W3C//DTD SVG 20010904//EN"
 "http://www.w3.org/TR/2001/REC-SVG-20010904/DTD/svg10.dtd">
<svg version="1.0" xmlns="http://www.w3.org/2000/svg"
 width="1280.000000pt" height="863.000000pt" viewBox="0 0 1280.000000 863.000000"
 preserveAspectRatio="xMidYMid meet">
<g transform="translate(0.000000,863.000000) scale(0.100000,-0.100000)"
fill="#000000" stroke="none">
<path d="M10380 8603 c-19 -15 -170 -149 -335 -298 -165 -149 -507 -457 -760
-685 -253 -228 -597 -539 -765 -690 -168 -151 -434 -391 -592 -534 -242 -218
-289 -265 -301 -300 -97 -281 -177 -458 -275 -606 -108 -163 -270 -297 -331
-273 -79 30 -2858 1307 -2870 1318 -8 8 -17 52 -23 117 -29 332 -161 711 -345
993 -390 597 -1030 955 -1704 955 -459 0 -959 -190 -1340 -509 -184 -153 -399
-404 -399 -464 0 -40 44 -113 79 -131 15 -8 167 -40 337 -70 170 -30 487 -87
704 -126 217 -39 532 -95 699 -125 168 -30 310 -60 317 -67 23 -25 494 -881
493 -897 -1 -20 -761 -695 -788 -699 -11 -2 -485 74 -1054 168 -824 136 -1039
169 -1060 161 -30 -12 -70 -68 -63 -91 2 -8 18 -61 35 -117 176 -580 556
-1040 1064 -1286 492 -240 1085 -262 1627 -60 184 68 405 193 548 310 30 23
59 43 65 43 22 0 2410 -1095 2414 -1106 3 -9 -2666 -2373 -2777 -2461 -9 -6
-85 -33 -170 -58 -85 -26 -161 -52 -169 -59 -25 -20 -522 -607 -538 -635 -10
-16 -14 -37 -10 -52 8 -31 198 -234 239 -255 l29 -15 352 230 c194 127 362
241 374 253 11 13 50 82 86 154 l66 131 1456 1284 c802 706 1463 1288 1471
1292 9 5 443 -188 1211 -539 1395 -636 1283 -584 1283 -604 0 -8 7 -72 15
-142 114 -980 845 -1765 1761 -1893 126 -18 365 -20 492 -5 362 45 720 192
1031 425 130 98 323 288 419 413 59 78 72 100 72 130 -1 57 -33 119 -72 137
-18 8 -485 94 -1038 191 -553 97 -1010 181 -1017 188 -12 11 -498 860 -508
888 -5 12 97 108 389 365 218 191 405 349 415 351 10 2 461 -76 1002 -173 541
-96 1002 -175 1024 -175 46 1 106 40 136 90 18 30 18 31 -11 117 -132 395
-320 699 -591 957 -290 276 -604 439 -994 519 -96 19 -141 22 -350 22 -206 0
-256 -3 -357 -23 -332 -63 -630 -194 -895 -394 -71 -52 -124 -86 -133 -83 -8
3 -268 122 -578 263 -408 187 -562 261 -560 272 4 22 191 93 353 135 77 19
157 40 177 46 28 7 387 305 1420 1176 761 641 1399 1181 1418 1199 32 32 35
39 34 92 -2 71 -34 225 -69 329 -158 472 -550 823 -1091 979 -132 38 -134 38
-174 7z"/>
</g>
</svg>
